<?xml version="1.0" encoding="UTF-8" standalone="no"?>
<!DOCTYPE svg PUBLIC "-//W3C//DTD SVG 1.1//EN"
 "http://www.w3.org/Graphics/SVG/1.1/DTD/svg11.dtd">
<!-- Generated by graphviz version 2.47.0 (20210316.0004)
 -->
<!-- Title: dependencies Pages: 1 -->
<svg width="2640pt" height="284pt"
 viewBox="0.00 0.00 2640.00 284.00" xmlns="http://www.w3.org/2000/svg" xmlns:xlink="http://www.w3.org/1999/xlink">
<g id="graph0" class="graph" transform="scale(1 1) rotate(0) translate(4 280)">
<title>dependencies</title>
<polygon fill="white" stroke="transparent" points="-4,4 -4,-280 2636,-280 2636,4 -4,4"/>
<text text-anchor="start" x="1295.01" y="-42.4" font-family="sans-serif" font-weight="bold" font-size="14.00">Legend</text>
<polygon fill="#ffffb3" stroke="transparent" points="1082,-10 1082,-30 1102,-30 1102,-10 1082,-10"/>
<text text-anchor="start" x="1105.63" y="-15.4" font-family="sans-serif" font-size="14.00"> &#160;Declarations</text>
<polygon fill="#8dd3c7" stroke="transparent" points="1195,-10 1195,-30 1215,-30 1215,-10 1195,-10"/>
<text text-anchor="start" x="1218.73" y="-15.4" font-family="sans-serif" font-size="14.00"> &#160;Module</text>
<polygon fill="#80b1d3" stroke="transparent" points="1281,-10 1281,-30 1301,-30 1301,-10 1281,-10"/>
<text text-anchor="start" x="1304.78" y="-15.4" font-family="sans-serif" font-size="14.00"> &#160;Bootstrap</text>
<polygon fill="#fdb462" stroke="transparent" points="1378,-10 1378,-30 1398,-30 1398,-10 1378,-10"/>
<text text-anchor="start" x="1401.67" y="-15.4" font-family="sans-serif" font-size="14.00"> &#160;Providers</text>
<polygon fill="#fb8072" stroke="transparent" points="1474,-10 1474,-30 1494,-30 1494,-10 1474,-10"/>
<text text-anchor="start" x="1497.73" y="-15.4" font-family="sans-serif" font-size="14.00"> &#160;Exports</text>
<g id="clust1" class="cluster">
<title>cluster_AppModule</title>
<polygon fill="none" stroke="black" stroke-dasharray="1,5" points="8,-70 8,-268 2624,-268 2624,-70 8,-70"/>
</g>
<g id="clust2" class="cluster">
<title>cluster_AppModule_declarations</title>
<polygon fill="none" stroke="black" points="1930,-78 1930,-130 2616,-130 2616,-78 1930,-78"/>
</g>
<g id="clust7" class="cluster">
<title>cluster_AppModule_imports</title>
<polygon fill="none" stroke="black" points="16,-78 16,-130 1922,-130 1922,-78 16,-78"/>
</g>
<g id="clust9" class="cluster">
<title>cluster_AppModule_bootstrap</title>
<polygon fill="none" stroke="black" points="1333,-208 1333,-260 1457,-260 1457,-208 1333,-208"/>
</g>
<!-- AppComponent -->
<g id="node1" class="node">
<title>AppComponent</title>
<polygon fill="#ffffb3" stroke="black" points="2607.94,-122 2502.06,-122 2502.06,-86 2607.94,-86 2607.94,-122"/>
<text text-anchor="middle" x="2555" y="-99.8" font-family="Times,serif" font-size="14.00">AppComponent</text>
</g>
<!-- AppModule -->
<g id="node5" class="node">
<title>AppModule</title>
<polygon fill="#8dd3c7" stroke="black" points="1436.66,-187 1433.66,-191 1412.66,-191 1409.66,-187 1353.34,-187 1353.34,-151 1436.66,-151 1436.66,-187"/>
<text text-anchor="middle" x="1395" y="-164.8" font-family="Times,serif" font-size="14.00">AppModule</text>
</g>
<!-- AppComponent&#45;&gt;AppModule -->
<g id="edge1" class="edge">
<title>AppComponent&#45;&gt;AppModule</title>
<path fill="none" stroke="black" d="M2555,-122.32C2555,-145.66 2555,-183 2555,-183 2555,-183 1446.97,-183 1446.97,-183"/>
<polygon fill="black" stroke="black" points="1446.97,-179.5 1436.97,-183 1446.97,-186.5 1446.97,-179.5"/>
</g>
<!-- LogInFormComponent -->
<g id="node2" class="node">
<title>LogInFormComponent</title>
<polygon fill="#ffffb3" stroke="black" points="2483.88,-122 2338.12,-122 2338.12,-86 2483.88,-86 2483.88,-122"/>
<text text-anchor="middle" x="2411" y="-99.8" font-family="Times,serif" font-size="14.00">LogInFormComponent</text>
</g>
<!-- LogInFormComponent&#45;&gt;AppModule -->
<g id="edge2" class="edge">
<title>LogInFormComponent&#45;&gt;AppModule</title>
<path fill="none" stroke="black" d="M2411,-122.29C2411,-144.21 2411,-178 2411,-178 2411,-178 1446.72,-178 1446.72,-178"/>
<polygon fill="black" stroke="black" points="1446.72,-174.5 1436.72,-178 1446.72,-181.5 1446.72,-174.5"/>
</g>
<!-- FormRegistrationComponent -->
<g id="node3" class="node">
<title>FormRegistrationComponent</title>
<polygon fill="#ffffb3" stroke="black" points="2320.1,-122 2139.9,-122 2139.9,-86 2320.1,-86 2320.1,-122"/>
<text text-anchor="middle" x="2230" y="-99.8" font-family="Times,serif" font-size="14.00">FormRegistrationComponent</text>
</g>
<!-- FormRegistrationComponent&#45;&gt;AppModule -->
<g id="edge3" class="edge">
<title>FormRegistrationComponent&#45;&gt;AppModule</title>
<path fill="none" stroke="black" d="M2230,-122.03C2230,-142.77 2230,-174 2230,-174 2230,-174 1446.69,-174 1446.69,-174"/>
<polygon fill="black" stroke="black" points="1446.69,-170.5 1436.69,-174 1446.69,-177.5 1446.69,-170.5"/>
</g>
<!-- FormArduinoDataComponent -->
<g id="node4" class="node">
<title>FormArduinoDataComponent</title>
<polygon fill="#ffffb3" stroke="black" points="2122.25,-122 1937.75,-122 1937.75,-86 2122.25,-86 2122.25,-122"/>
<text text-anchor="middle" x="2030" y="-99.8" font-family="Times,serif" font-size="14.00">FormArduinoDataComponent</text>
</g>
<!-- FormArduinoDataComponent&#45;&gt;AppModule -->
<g id="edge4" class="edge">
<title>FormArduinoDataComponent&#45;&gt;AppModule</title>
<path fill="none" stroke="black" d="M2030,-122.11C2030,-141.34 2030,-169 2030,-169 2030,-169 1446.66,-169 1446.66,-169"/>
<polygon fill="black" stroke="black" points="1446.66,-165.5 1436.66,-169 1446.66,-172.5 1446.66,-165.5"/>
</g>
<!-- AppComponent  -->
<g id="node17" class="node">
<title>AppComponent </title>
<polygon fill="#80b1d3" stroke="black" points="1449.44,-252 1340.56,-252 1340.56,-216 1449.44,-216 1449.44,-252"/>
<text text-anchor="middle" x="1395" y="-229.8" font-family="Times,serif" font-size="14.00">AppComponent </text>
</g>
<!-- AppModule&#45;&gt;AppComponent  -->
<g id="edge16" class="edge">
<title>AppModule&#45;&gt;AppComponent </title>
<path fill="none" stroke="black" stroke-dasharray="1,5" d="M1395,-187.11C1395,-187.11 1395,-205.99 1395,-205.99"/>
<polygon fill="black" stroke="black" points="1391.5,-205.99 1395,-215.99 1398.5,-205.99 1391.5,-205.99"/>
</g>
<!-- BrowserModule -->
<g id="node6" class="node">
<title>BrowserModule</title>
<polygon fill="#8dd3c7" stroke="black" points="1914.47,-122 1911.47,-126 1890.47,-126 1887.47,-122 1807.53,-122 1807.53,-86 1914.47,-86 1914.47,-122"/>
<text text-anchor="middle" x="1861" y="-99.8" font-family="Times,serif" font-size="14.00">BrowserModule</text>
</g>
<!-- BrowserModule&#45;&gt;AppModule -->
<g id="edge5" class="edge">
<title>BrowserModule&#45;&gt;AppModule</title>
<path fill="none" stroke="black" d="M1861,-122.3C1861,-140.27 1861,-165 1861,-165 1861,-165 1446.76,-165 1446.76,-165"/>
<polygon fill="black" stroke="black" points="1446.76,-161.5 1436.76,-165 1446.76,-168.5 1446.76,-161.5"/>
</g>
<!-- ReactiveFormsModule -->
<g id="node7" class="node">
<title>ReactiveFormsModule</title>
<polygon fill="#8dd3c7" stroke="black" points="1789.3,-122 1786.3,-126 1765.3,-126 1762.3,-122 1644.7,-122 1644.7,-86 1789.3,-86 1789.3,-122"/>
<text text-anchor="middle" x="1717" y="-99.8" font-family="Times,serif" font-size="14.00">ReactiveFormsModule</text>
</g>
<!-- ReactiveFormsModule&#45;&gt;AppModule -->
<g id="edge6" class="edge">
<title>ReactiveFormsModule&#45;&gt;AppModule</title>
<path fill="none" stroke="black" d="M1717,-122.03C1717,-138.4 1717,-160 1717,-160 1717,-160 1446.77,-160 1446.77,-160"/>
<polygon fill="black" stroke="black" points="1446.77,-156.5 1436.77,-160 1446.77,-163.5 1446.77,-156.5"/>
</g>
<!-- NgxSpinnerModule -->
<g id="node8" class="node">
<title>NgxSpinnerModule</title>
<polygon fill="#8dd3c7" stroke="black" points="1626.7,-122 1623.7,-126 1602.7,-126 1599.7,-122 1499.3,-122 1499.3,-86 1626.7,-86 1626.7,-122"/>
<text text-anchor="middle" x="1563" y="-99.8" font-family="Times,serif" font-size="14.00">NgxSpinnerModule</text>
</g>
<!-- NgxSpinnerModule&#45;&gt;AppModule -->
<g id="edge7" class="edge">
<title>NgxSpinnerModule&#45;&gt;AppModule</title>
<path fill="none" stroke="black" d="M1563,-122.19C1563,-137.18 1563,-156 1563,-156 1563,-156 1446.96,-156 1446.96,-156"/>
<polygon fill="black" stroke="black" points="1446.96,-152.5 1436.96,-156 1446.96,-159.5 1446.96,-152.5"/>
</g>
<!-- BrowserAnimationsModule -->
<g id="node9" class="node">
<title>BrowserAnimationsModule</title>
<polygon fill="#8dd3c7" stroke="black" points="1481.3,-122 1478.3,-126 1457.3,-126 1454.3,-122 1308.7,-122 1308.7,-86 1481.3,-86 1481.3,-122"/>
<text text-anchor="middle" x="1395" y="-99.8" font-family="Times,serif" font-size="14.00">BrowserAnimationsModule</text>
</g>
<!-- BrowserAnimationsModule&#45;&gt;AppModule -->
<g id="edge8" class="edge">
<title>BrowserAnimationsModule&#45;&gt;AppModule</title>
<path fill="none" stroke="black" d="M1395,-122.11C1395,-122.11 1395,-140.99 1395,-140.99"/>
<polygon fill="black" stroke="black" points="1391.5,-140.99 1395,-150.99 1398.5,-140.99 1391.5,-140.99"/>
</g>
<!-- HttpClientModule -->
<g id="node10" class="node">
<title>HttpClientModule</title>
<polygon fill="#8dd3c7" stroke="black" points="1291.16,-122 1288.16,-126 1267.16,-126 1264.16,-122 1172.84,-122 1172.84,-86 1291.16,-86 1291.16,-122"/>
<text text-anchor="middle" x="1232" y="-99.8" font-family="Times,serif" font-size="14.00">HttpClientModule</text>
</g>
<!-- HttpClientModule&#45;&gt;AppModule -->
<g id="edge9" class="edge">
<title>HttpClientModule&#45;&gt;AppModule</title>
<path fill="none" stroke="black" d="M1232,-122.19C1232,-137.18 1232,-156 1232,-156 1232,-156 1343.02,-156 1343.02,-156"/>
<polygon fill="black" stroke="black" points="1343.02,-159.5 1353.02,-156 1343.02,-152.5 1343.02,-159.5"/>
</g>
<!-- AngularFireModule.initializeApp(args) -->
<g id="node11" class="node">
<title>AngularFireModule.initializeApp(args)</title>
<polygon fill="#8dd3c7" stroke="black" points="1154.71,-122 1151.71,-126 1130.71,-126 1127.71,-122 917.29,-122 917.29,-86 1154.71,-86 1154.71,-122"/>
<text text-anchor="middle" x="1036" y="-99.8" font-family="Times,serif" font-size="14.00">AngularFireModule.initializeApp(args)</text>
</g>
<!-- AngularFireModule.initializeApp(args)&#45;&gt;AppModule -->
<g id="edge10" class="edge">
<title>AngularFireModule.initializeApp(args)&#45;&gt;AppModule</title>
<path fill="none" stroke="black" d="M1036,-122.03C1036,-138.4 1036,-160 1036,-160 1036,-160 1343.12,-160 1343.12,-160"/>
<polygon fill="black" stroke="black" points="1343.12,-163.5 1353.12,-160 1343.12,-156.5 1343.12,-163.5"/>
</g>
<!-- AngularFireAuthModule -->
<g id="node12" class="node">
<title>AngularFireAuthModule</title>
<polygon fill="#8dd3c7" stroke="black" points="898.97,-122 895.97,-126 874.97,-126 871.97,-122 743.03,-122 743.03,-86 898.97,-86 898.97,-122"/>
<text text-anchor="middle" x="821" y="-99.8" font-family="Times,serif" font-size="14.00">AngularFireAuthModule</text>
</g>
<!-- AngularFireAuthModule&#45;&gt;AppModule -->
<g id="edge11" class="edge">
<title>AngularFireAuthModule&#45;&gt;AppModule</title>
<path fill="none" stroke="black" d="M821,-122.3C821,-140.27 821,-165 821,-165 821,-165 1343.26,-165 1343.26,-165"/>
<polygon fill="black" stroke="black" points="1343.26,-168.5 1353.26,-165 1343.26,-161.5 1343.26,-168.5"/>
</g>
<!-- AngularFirestoreModule -->
<g id="node13" class="node">
<title>AngularFirestoreModule</title>
<polygon fill="#8dd3c7" stroke="black" points="724.68,-122 721.68,-126 700.68,-126 697.68,-122 569.32,-122 569.32,-86 724.68,-86 724.68,-122"/>
<text text-anchor="middle" x="647" y="-99.8" font-family="Times,serif" font-size="14.00">AngularFirestoreModule</text>
</g>
<!-- AngularFirestoreModule&#45;&gt;AppModule -->
<g id="edge12" class="edge">
<title>AngularFirestoreModule&#45;&gt;AppModule</title>
<path fill="none" stroke="black" d="M647,-122.11C647,-141.34 647,-169 647,-169 647,-169 1343.18,-169 1343.18,-169"/>
<polygon fill="black" stroke="black" points="1343.18,-172.5 1353.18,-169 1343.18,-165.5 1343.18,-172.5"/>
</g>
<!-- AppRoutingModule -->
<g id="node14" class="node">
<title>AppRoutingModule</title>
<polygon fill="#8dd3c7" stroke="black" points="551.27,-122 548.27,-126 527.27,-126 524.27,-122 422.73,-122 422.73,-86 551.27,-86 551.27,-122"/>
<text text-anchor="middle" x="487" y="-99.8" font-family="Times,serif" font-size="14.00">AppRoutingModule</text>
</g>
<!-- AppRoutingModule&#45;&gt;AppModule -->
<g id="edge13" class="edge">
<title>AppRoutingModule&#45;&gt;AppModule</title>
<path fill="none" stroke="black" d="M487,-122.03C487,-142.77 487,-174 487,-174 487,-174 1343.33,-174 1343.33,-174"/>
<polygon fill="black" stroke="black" points="1343.33,-177.5 1353.33,-174 1343.33,-170.5 1343.33,-177.5"/>
</g>
<!-- AngularFireStorageModule -->
<g id="node15" class="node">
<title>AngularFireStorageModule</title>
<polygon fill="#8dd3c7" stroke="black" points="404.23,-122 401.23,-126 380.23,-126 377.23,-122 233.77,-122 233.77,-86 404.23,-86 404.23,-122"/>
<text text-anchor="middle" x="319" y="-99.8" font-family="Times,serif" font-size="14.00">AngularFireStorageModule</text>
</g>
<!-- AngularFireStorageModule&#45;&gt;AppModule -->
<g id="edge14" class="edge">
<title>AngularFireStorageModule&#45;&gt;AppModule</title>
<path fill="none" stroke="black" d="M319,-122.29C319,-144.21 319,-178 319,-178 319,-178 1343.15,-178 1343.15,-178"/>
<polygon fill="black" stroke="black" points="1343.15,-181.5 1353.15,-178 1343.15,-174.5 1343.15,-181.5"/>
</g>
<!-- TranslateModule.forRoot(args) -->
<g id="node16" class="node">
<title>TranslateModule.forRoot(args)</title>
<polygon fill="#8dd3c7" stroke="black" points="215.82,-122 212.82,-126 191.82,-126 188.82,-122 24.18,-122 24.18,-86 215.82,-86 215.82,-122"/>
<text text-anchor="middle" x="120" y="-99.8" font-family="Times,serif" font-size="14.00">TranslateModule.forRoot(args)</text>
</g>
<!-- TranslateModule.forRoot(args)&#45;&gt;AppModule -->
<g id="edge15" class="edge">
<title>TranslateModule.forRoot(args)&#45;&gt;AppModule</title>
<path fill="none" stroke="black" d="M120,-122.32C120,-145.66 120,-183 120,-183 120,-183 1343.3,-183 1343.3,-183"/>
<polygon fill="black" stroke="black" points="1343.3,-186.5 1353.3,-183 1343.3,-179.5 1343.3,-186.5"/>
</g>
</g>
</svg>
