<?xml version="1.0" encoding="UTF-8" standalone="no"?>
<!DOCTYPE svg PUBLIC "-//W3C//DTD SVG 1.1//EN"
 "http://www.w3.org/Graphics/SVG/1.1/DTD/svg11.dtd">
<!-- Generated by graphviz version 2.47.0 (20210316.0004)
 -->
<!-- Title: dependencies Pages: 1 -->
<svg width="2983pt" height="290pt"
 viewBox="0.00 0.00 2983.00 290.00" xmlns="http://www.w3.org/2000/svg" xmlns:xlink="http://www.w3.org/1999/xlink">
<g id="graph0" class="graph" transform="scale(1 1) rotate(0) translate(4 286)">
<title>dependencies</title>
<polygon fill="white" stroke="transparent" points="-4,4 -4,-286 2979,-286 2979,4 -4,4"/>
<text text-anchor="start" x="1466.51" y="-42.4" font-family="sans-serif" font-weight="bold" font-size="14.00">Legend</text>
<polygon fill="#ffffb3" stroke="transparent" points="1253.5,-10 1253.5,-30 1273.5,-30 1273.5,-10 1253.5,-10"/>
<text text-anchor="start" x="1277.13" y="-15.4" font-family="sans-serif" font-size="14.00"> &#160;Declarations</text>
<polygon fill="#8dd3c7" stroke="transparent" points="1366.5,-10 1366.5,-30 1386.5,-30 1386.5,-10 1366.5,-10"/>
<text text-anchor="start" x="1390.23" y="-15.4" font-family="sans-serif" font-size="14.00"> &#160;Module</text>
<polygon fill="#80b1d3" stroke="transparent" points="1452.5,-10 1452.5,-30 1472.5,-30 1472.5,-10 1452.5,-10"/>
<text text-anchor="start" x="1476.28" y="-15.4" font-family="sans-serif" font-size="14.00"> &#160;Bootstrap</text>
<polygon fill="#fdb462" stroke="transparent" points="1549.5,-10 1549.5,-30 1569.5,-30 1569.5,-10 1549.5,-10"/>
<text text-anchor="start" x="1573.17" y="-15.4" font-family="sans-serif" font-size="14.00"> &#160;Providers</text>
<polygon fill="#fb8072" stroke="transparent" points="1645.5,-10 1645.5,-30 1665.5,-30 1665.5,-10 1645.5,-10"/>
<text text-anchor="start" x="1669.23" y="-15.4" font-family="sans-serif" font-size="14.00"> &#160;Exports</text>
<g id="clust1" class="cluster">
<title>cluster_AppModule</title>
<polygon fill="none" stroke="black" stroke-dasharray="1,5" points="8,-70 8,-274 2623,-274 2623,-70 8,-70"/>
</g>
<g id="clust2" class="cluster">
<title>cluster_AppModule_declarations</title>
<polygon fill="none" stroke="black" points="16,-78 16,-130 702,-130 702,-78 16,-78"/>
</g>
<g id="clust7" class="cluster">
<title>cluster_AppModule_imports</title>
<polygon fill="none" stroke="black" points="710,-78 710,-130 2615,-130 2615,-78 710,-78"/>
</g>
<g id="clust9" class="cluster">
<title>cluster_AppModule_bootstrap</title>
<polygon fill="none" stroke="black" points="1305,-214 1305,-266 1429,-266 1429,-214 1305,-214"/>
</g>
<g id="clust11" class="cluster">
<title>cluster_AppRoutingModule</title>
<polygon fill="none" stroke="black" stroke-dasharray="1,5" points="2631,-138 2631,-206 2967,-206 2967,-138 2631,-138"/>
</g>
<g id="clust13" class="cluster">
<title>cluster_AppRoutingModule_imports</title>
<polygon fill="none" stroke="black" points="2765,-146 2765,-198 2959,-198 2959,-146 2765,-146"/>
</g>
<g id="clust14" class="cluster">
<title>cluster_AppRoutingModule_exports</title>
<polygon fill="none" stroke="black" points="2639,-146 2639,-198 2757,-198 2757,-146 2639,-146"/>
</g>
<!-- AppComponent -->
<g id="node1" class="node">
<title>AppComponent</title>
<polygon fill="#ffffb3" stroke="black" points="693.94,-122 588.06,-122 588.06,-86 693.94,-86 693.94,-122"/>
<text text-anchor="middle" x="641" y="-99.8" font-family="Times,serif" font-size="14.00">AppComponent</text>
</g>
<!-- AppModule -->
<g id="node5" class="node">
<title>AppModule</title>
<polygon fill="#8dd3c7" stroke="black" points="1408.66,-190 1405.66,-194 1384.66,-194 1381.66,-190 1325.34,-190 1325.34,-154 1408.66,-154 1408.66,-190"/>
<text text-anchor="middle" x="1367" y="-167.8" font-family="Times,serif" font-size="14.00">AppModule</text>
</g>
<!-- AppComponent&#45;&gt;AppModule -->
<g id="edge1" class="edge">
<title>AppComponent&#45;&gt;AppModule</title>
<path fill="none" stroke="black" d="M641,-122.22C641,-142.37 641,-172 641,-172 641,-172 1315.09,-172 1315.09,-172"/>
<polygon fill="black" stroke="black" points="1315.09,-175.5 1325.09,-172 1315.09,-168.5 1315.09,-175.5"/>
</g>
<!-- LogInFormComponent -->
<g id="node2" class="node">
<title>LogInFormComponent</title>
<polygon fill="#ffffb3" stroke="black" points="569.88,-122 424.12,-122 424.12,-86 569.88,-86 569.88,-122"/>
<text text-anchor="middle" x="497" y="-99.8" font-family="Times,serif" font-size="14.00">LogInFormComponent</text>
</g>
<!-- LogInFormComponent&#45;&gt;AppModule -->
<g id="edge2" class="edge">
<title>LogInFormComponent&#45;&gt;AppModule</title>
<path fill="none" stroke="black" d="M497,-122.04C497,-143.66 497,-177 497,-177 497,-177 1315.33,-177 1315.33,-177"/>
<polygon fill="black" stroke="black" points="1315.33,-180.5 1325.33,-177 1315.33,-173.5 1315.33,-180.5"/>
</g>
<!-- FormRegistrationComponent -->
<g id="node3" class="node">
<title>FormRegistrationComponent</title>
<polygon fill="#ffffb3" stroke="black" points="406.1,-122 225.9,-122 225.9,-86 406.1,-86 406.1,-122"/>
<text text-anchor="middle" x="316" y="-99.8" font-family="Times,serif" font-size="14.00">FormRegistrationComponent</text>
</g>
<!-- FormRegistrationComponent&#45;&gt;AppModule -->
<g id="edge3" class="edge">
<title>FormRegistrationComponent&#45;&gt;AppModule</title>
<path fill="none" stroke="black" d="M316,-122.25C316,-145.02 316,-181 316,-181 316,-181 1315.15,-181 1315.15,-181"/>
<polygon fill="black" stroke="black" points="1315.15,-184.5 1325.15,-181 1315.15,-177.5 1315.15,-184.5"/>
</g>
<!-- FormArduinoDataComponent -->
<g id="node4" class="node">
<title>FormArduinoDataComponent</title>
<polygon fill="#ffffb3" stroke="black" points="208.25,-122 23.75,-122 23.75,-86 208.25,-86 208.25,-122"/>
<text text-anchor="middle" x="116" y="-99.8" font-family="Times,serif" font-size="14.00">FormArduinoDataComponent</text>
</g>
<!-- FormArduinoDataComponent&#45;&gt;AppModule -->
<g id="edge4" class="edge">
<title>FormArduinoDataComponent&#45;&gt;AppModule</title>
<path fill="none" stroke="black" d="M116,-122.2C116,-146.36 116,-186 116,-186 116,-186 1315.02,-186 1315.02,-186"/>
<polygon fill="black" stroke="black" points="1315.02,-189.5 1325.02,-186 1315.02,-182.5 1315.02,-189.5"/>
</g>
<!-- AppComponent  -->
<g id="node17" class="node">
<title>AppComponent </title>
<polygon fill="#80b1d3" stroke="black" points="1421.44,-258 1312.56,-258 1312.56,-222 1421.44,-222 1421.44,-258"/>
<text text-anchor="middle" x="1367" y="-235.8" font-family="Times,serif" font-size="14.00">AppComponent </text>
</g>
<!-- AppModule&#45;&gt;AppComponent  -->
<g id="edge16" class="edge">
<title>AppModule&#45;&gt;AppComponent </title>
<path fill="none" stroke="black" stroke-dasharray="1,5" d="M1367,-190.22C1367,-190.22 1367,-211.73 1367,-211.73"/>
<polygon fill="black" stroke="black" points="1363.5,-211.73 1367,-221.73 1370.5,-211.73 1363.5,-211.73"/>
</g>
<!-- BrowserModule -->
<g id="node6" class="node">
<title>BrowserModule</title>
<polygon fill="#8dd3c7" stroke="black" points="2460.47,-122 2457.47,-126 2436.47,-126 2433.47,-122 2353.53,-122 2353.53,-86 2460.47,-86 2460.47,-122"/>
<text text-anchor="middle" x="2407" y="-99.8" font-family="Times,serif" font-size="14.00">BrowserModule</text>
</g>
<!-- BrowserModule&#45;&gt;AppModule -->
<g id="edge5" class="edge">
<title>BrowserModule&#45;&gt;AppModule</title>
<path fill="none" stroke="black" d="M2407,-122.25C2407,-145.02 2407,-181 2407,-181 2407,-181 1418.73,-181 1418.73,-181"/>
<polygon fill="black" stroke="black" points="1418.73,-177.5 1408.73,-181 1418.73,-184.5 1418.73,-177.5"/>
</g>
<!-- ReactiveFormsModule -->
<g id="node7" class="node">
<title>ReactiveFormsModule</title>
<polygon fill="#8dd3c7" stroke="black" points="2335.3,-122 2332.3,-126 2311.3,-126 2308.3,-122 2190.7,-122 2190.7,-86 2335.3,-86 2335.3,-122"/>
<text text-anchor="middle" x="2263" y="-99.8" font-family="Times,serif" font-size="14.00">ReactiveFormsModule</text>
</g>
<!-- ReactiveFormsModule&#45;&gt;AppModule -->
<g id="edge6" class="edge">
<title>ReactiveFormsModule&#45;&gt;AppModule</title>
<path fill="none" stroke="black" d="M2263,-122.04C2263,-143.66 2263,-177 2263,-177 2263,-177 1418.72,-177 1418.72,-177"/>
<polygon fill="black" stroke="black" points="1418.72,-173.5 1408.72,-177 1418.72,-180.5 1418.72,-173.5"/>
</g>
<!-- NgxSpinnerModule -->
<g id="node8" class="node">
<title>NgxSpinnerModule</title>
<polygon fill="#8dd3c7" stroke="black" points="2172.7,-122 2169.7,-126 2148.7,-126 2145.7,-122 2045.3,-122 2045.3,-86 2172.7,-86 2172.7,-122"/>
<text text-anchor="middle" x="2109" y="-99.8" font-family="Times,serif" font-size="14.00">NgxSpinnerModule</text>
</g>
<!-- NgxSpinnerModule&#45;&gt;AppModule -->
<g id="edge7" class="edge">
<title>NgxSpinnerModule&#45;&gt;AppModule</title>
<path fill="none" stroke="black" d="M2109,-122.22C2109,-142.37 2109,-172 2109,-172 2109,-172 1418.75,-172 1418.75,-172"/>
<polygon fill="black" stroke="black" points="1418.75,-168.5 1408.75,-172 1418.75,-175.5 1418.75,-168.5"/>
</g>
<!-- BrowserAnimationsModule -->
<g id="node9" class="node">
<title>BrowserAnimationsModule</title>
<polygon fill="#8dd3c7" stroke="black" points="2027.3,-122 2024.3,-126 2003.3,-126 2000.3,-122 1854.7,-122 1854.7,-86 2027.3,-86 2027.3,-122"/>
<text text-anchor="middle" x="1941" y="-99.8" font-family="Times,serif" font-size="14.00">BrowserAnimationsModule</text>
</g>
<!-- BrowserAnimationsModule&#45;&gt;AppModule -->
<g id="edge8" class="edge">
<title>BrowserAnimationsModule&#45;&gt;AppModule</title>
<path fill="none" stroke="black" d="M1941,-122.17C1941,-141.09 1941,-168 1941,-168 1941,-168 1418.74,-168 1418.74,-168"/>
<polygon fill="black" stroke="black" points="1418.74,-164.5 1408.74,-168 1418.74,-171.5 1418.74,-164.5"/>
</g>
<!-- HttpClientModule -->
<g id="node10" class="node">
<title>HttpClientModule</title>
<polygon fill="#8dd3c7" stroke="black" points="1837.16,-122 1834.16,-126 1813.16,-126 1810.16,-122 1718.84,-122 1718.84,-86 1837.16,-86 1837.16,-122"/>
<text text-anchor="middle" x="1778" y="-99.8" font-family="Times,serif" font-size="14.00">HttpClientModule</text>
</g>
<!-- HttpClientModule&#45;&gt;AppModule -->
<g id="edge9" class="edge">
<title>HttpClientModule&#45;&gt;AppModule</title>
<path fill="none" stroke="black" d="M1778,-122.02C1778,-139.37 1778,-163 1778,-163 1778,-163 1418.67,-163 1418.67,-163"/>
<polygon fill="black" stroke="black" points="1418.67,-159.5 1408.67,-163 1418.67,-166.5 1418.67,-159.5"/>
</g>
<!-- AngularFireModule.initializeApp(args) -->
<g id="node11" class="node">
<title>AngularFireModule.initializeApp(args)</title>
<polygon fill="#8dd3c7" stroke="black" points="1700.71,-122 1697.71,-126 1676.71,-126 1673.71,-122 1463.29,-122 1463.29,-86 1700.71,-86 1700.71,-122"/>
<text text-anchor="middle" x="1582" y="-99.8" font-family="Times,serif" font-size="14.00">AngularFireModule.initializeApp(args)</text>
</g>
<!-- AngularFireModule.initializeApp(args)&#45;&gt;AppModule -->
<g id="edge10" class="edge">
<title>AngularFireModule.initializeApp(args)&#45;&gt;AppModule</title>
<path fill="none" stroke="black" d="M1582,-122.01C1582,-138.05 1582,-159 1582,-159 1582,-159 1418.71,-159 1418.71,-159"/>
<polygon fill="black" stroke="black" points="1418.71,-155.5 1408.71,-159 1418.71,-162.5 1418.71,-155.5"/>
</g>
<!-- AngularFireAuthModule -->
<g id="node12" class="node">
<title>AngularFireAuthModule</title>
<polygon fill="#8dd3c7" stroke="black" points="1444.97,-122 1441.97,-126 1420.97,-126 1417.97,-122 1289.03,-122 1289.03,-86 1444.97,-86 1444.97,-122"/>
<text text-anchor="middle" x="1367" y="-99.8" font-family="Times,serif" font-size="14.00">AngularFireAuthModule</text>
</g>
<!-- AngularFireAuthModule&#45;&gt;AppModule -->
<g id="edge11" class="edge">
<title>AngularFireAuthModule&#45;&gt;AppModule</title>
<path fill="none" stroke="black" d="M1367,-122.22C1367,-122.22 1367,-143.73 1367,-143.73"/>
<polygon fill="black" stroke="black" points="1363.5,-143.73 1367,-153.73 1370.5,-143.73 1363.5,-143.73"/>
</g>
<!-- AngularFirestoreModule -->
<g id="node13" class="node">
<title>AngularFirestoreModule</title>
<polygon fill="#8dd3c7" stroke="black" points="1270.68,-122 1267.68,-126 1246.68,-126 1243.68,-122 1115.32,-122 1115.32,-86 1270.68,-86 1270.68,-122"/>
<text text-anchor="middle" x="1193" y="-99.8" font-family="Times,serif" font-size="14.00">AngularFirestoreModule</text>
</g>
<!-- AngularFirestoreModule&#45;&gt;AppModule -->
<g id="edge12" class="edge">
<title>AngularFirestoreModule&#45;&gt;AppModule</title>
<path fill="none" stroke="black" d="M1193,-122.01C1193,-138.05 1193,-159 1193,-159 1193,-159 1315.32,-159 1315.32,-159"/>
<polygon fill="black" stroke="black" points="1315.32,-162.5 1325.32,-159 1315.32,-155.5 1315.32,-162.5"/>
</g>
<!-- AppRoutingModule -->
<g id="node14" class="node">
<title>AppRoutingModule</title>
<polygon fill="#8dd3c7" stroke="black" points="2607.27,-122 2604.27,-126 2583.27,-126 2580.27,-122 2478.73,-122 2478.73,-86 2607.27,-86 2607.27,-122"/>
<text text-anchor="middle" x="2543" y="-99.8" font-family="Times,serif" font-size="14.00">AppRoutingModule</text>
</g>
<!-- AppRoutingModule&#45;&gt;AppModule -->
<g id="edge13" class="edge">
<title>AppRoutingModule&#45;&gt;AppModule</title>
<path fill="none" stroke="black" d="M2543,-122.2C2543,-146.36 2543,-186 2543,-186 2543,-186 1418.85,-186 1418.85,-186"/>
<polygon fill="black" stroke="black" points="1418.85,-182.5 1408.85,-186 1418.85,-189.5 1418.85,-182.5"/>
</g>
<!-- RouterModule  -->
<g id="node19" class="node">
<title>RouterModule </title>
<polygon fill="#fb8072" stroke="black" points="2748.65,-190 2647.35,-190 2647.35,-154 2748.65,-154 2748.65,-190"/>
<text text-anchor="middle" x="2698" y="-167.8" font-family="Times,serif" font-size="14.00">RouterModule </text>
</g>
<!-- AppRoutingModule&#45;&gt;RouterModule  -->
<g id="edge18" class="edge">
<title>AppRoutingModule&#45;&gt;RouterModule </title>
<path fill="none" stroke="black" stroke-dasharray="5,2" d="M2607.39,-110C2649.97,-110 2698,-110 2698,-110 2698,-110 2698,-143.73 2698,-143.73"/>
<polygon fill="black" stroke="black" points="2694.5,-143.73 2698,-153.73 2701.5,-143.73 2694.5,-143.73"/>
</g>
<!-- AngularFireStorageModule -->
<g id="node15" class="node">
<title>AngularFireStorageModule</title>
<polygon fill="#8dd3c7" stroke="black" points="888.23,-122 885.23,-126 864.23,-126 861.23,-122 717.77,-122 717.77,-86 888.23,-86 888.23,-122"/>
<text text-anchor="middle" x="803" y="-99.8" font-family="Times,serif" font-size="14.00">AngularFireStorageModule</text>
</g>
<!-- AngularFireStorageModule&#45;&gt;AppModule -->
<g id="edge14" class="edge">
<title>AngularFireStorageModule&#45;&gt;AppModule</title>
<path fill="none" stroke="black" d="M803,-122.17C803,-141.09 803,-168 803,-168 803,-168 1315.07,-168 1315.07,-168"/>
<polygon fill="black" stroke="black" points="1315.07,-171.5 1325.07,-168 1315.07,-164.5 1315.07,-171.5"/>
</g>
<!-- TranslateModule.forRoot(args) -->
<g id="node16" class="node">
<title>TranslateModule.forRoot(args)</title>
<polygon fill="#8dd3c7" stroke="black" points="1097.82,-122 1094.82,-126 1073.82,-126 1070.82,-122 906.18,-122 906.18,-86 1097.82,-86 1097.82,-122"/>
<text text-anchor="middle" x="1002" y="-99.8" font-family="Times,serif" font-size="14.00">TranslateModule.forRoot(args)</text>
</g>
<!-- TranslateModule.forRoot(args)&#45;&gt;AppModule -->
<g id="edge15" class="edge">
<title>TranslateModule.forRoot(args)&#45;&gt;AppModule</title>
<path fill="none" stroke="black" d="M1002,-122.02C1002,-139.37 1002,-163 1002,-163 1002,-163 1315.13,-163 1315.13,-163"/>
<polygon fill="black" stroke="black" points="1315.13,-166.5 1325.13,-163 1315.13,-159.5 1315.13,-166.5"/>
</g>
<!-- RouterModule.forRoot(args) -->
<g id="node18" class="node">
<title>RouterModule.forRoot(args)</title>
<polygon fill="#8dd3c7" stroke="black" points="2950.84,-190 2947.84,-194 2926.84,-194 2923.84,-190 2773.16,-190 2773.16,-154 2950.84,-154 2950.84,-190"/>
<text text-anchor="middle" x="2862" y="-167.8" font-family="Times,serif" font-size="14.00">RouterModule.forRoot(args)</text>
</g>
<!-- RouterModule.forRoot(args)&#45;&gt;AppRoutingModule -->
<g id="edge17" class="edge">
<title>RouterModule.forRoot(args)&#45;&gt;AppRoutingModule</title>
<path fill="none" stroke="black" d="M2862,-153.71C2862,-131.79 2862,-98 2862,-98 2862,-98 2617.55,-98 2617.55,-98"/>
<polygon fill="black" stroke="black" points="2617.55,-94.5 2607.55,-98 2617.55,-101.5 2617.55,-94.5"/>
</g>
</g>
</svg>
